<svg width="152" height="123" viewBox="0 0 152 123" fill="none" xmlns="http://www.w3.org/2000/svg">
<path d="M4 117.5C31.7889 82.8858 97.7967 17.5633 144.457 26.1906M144.457 26.1906C145.651 26.4114 146.832 26.6806 148 27M144.457 26.1906C145.689 26.4757 146.873 26.7459 148 27M144.457 26.1906C119.819 20.4909 75.6904 8.85704 71.5 2M148 27C137.333 42.3333 118.1 74.8 126.5 82M2 121.5C29.7889 86.8858 95.7967 21.5633 142.457 30.1906M142.457 30.1906C143.651 30.4114 144.832 30.6806 146 31M142.457 30.1906C143.689 30.4757 144.873 30.7459 146 31M142.457 30.1906C117.819 24.4909 73.6904 12.857 69.5 6M146 31C135.333 46.3333 116.1 78.8 124.5 86" stroke="#1C462A" stroke-width="4"/>
</svg>
