<?xml version="1.0" encoding="UTF-8" standalone="no"?>
<!DOCTYPE svg PUBLIC "-//W3C//DTD SVG 1.1//EN" "http://www.w3.org/Graphics/SVG/1.1/DTD/svg11.dtd">
<svg width="100%" height="100%" viewBox="0 0 725 206" version="1.1" xmlns="http://www.w3.org/2000/svg" xmlns:xlink="http://www.w3.org/1999/xlink" xml:space="preserve" xmlns:serif="http://www.serif.com/" style="fill-rule:evenodd;clip-rule:evenodd;stroke-linejoin:round;stroke-miterlimit:2;">
    <g transform="matrix(1,0,0,1,-37.84,-161.699)">
        <g transform="matrix(1,0,0,1,-158.19,46.3573)">
            <g transform="matrix(288,0,0,288,193.15,318.67)">
                <path d="M0.23,-0.369L0.23,-0L0.13,-0L0.13,-0.04L0.128,-0.041C0.123,-0.026 0.115,-0.014 0.106,-0.006C0.097,0.002 0.086,0.006 0.074,0.006C0.055,0.006 0.04,-0.003 0.028,-0.023C0.016,-0.042 0.01,-0.069 0.01,-0.104L0.01,-0.596C0.01,-0.631 0.021,-0.658 0.042,-0.677C0.063,-0.696 0.089,-0.706 0.121,-0.706C0.153,-0.706 0.179,-0.697 0.2,-0.678C0.22,-0.659 0.23,-0.631 0.23,-0.596L0.23,-0.435L0.13,-0.435L0.13,-0.601C0.13,-0.611 0.127,-0.616 0.12,-0.616C0.113,-0.616 0.11,-0.611 0.11,-0.601L0.11,-0.095C0.11,-0.085 0.113,-0.08 0.12,-0.08C0.127,-0.08 0.13,-0.085 0.13,-0.095L0.13,-0.279L0.12,-0.279L0.12,-0.369L0.23,-0.369Z" style="fill:rgb(227,255,237);fill-rule:nonzero;"/>
            </g>
            <g transform="matrix(288,0,0,288,262.27,318.67)">
                <path d="M0.13,-0.295C0.13,-0.305 0.127,-0.31 0.12,-0.31L0.11,-0.31L0.11,-0L0.01,-0L0.01,-0.7L0.121,-0.7C0.158,-0.7 0.185,-0.692 0.203,-0.677C0.221,-0.661 0.23,-0.635 0.23,-0.6L0.23,-0.458C0.23,-0.443 0.23,-0.43 0.229,-0.419C0.228,-0.408 0.227,-0.398 0.224,-0.39C0.221,-0.381 0.216,-0.374 0.211,-0.369C0.205,-0.364 0.197,-0.359 0.188,-0.356L0.188,-0.354C0.207,-0.348 0.219,-0.337 0.224,-0.321C0.228,-0.305 0.23,-0.282 0.23,-0.252L0.23,-0.092C0.23,-0.081 0.23,-0.071 0.231,-0.064C0.231,-0.056 0.231,-0.049 0.232,-0.042C0.233,-0.035 0.234,-0.029 0.236,-0.023C0.237,-0.017 0.239,-0.01 0.242,-0.002L0.242,-0L0.139,-0C0.136,-0.013 0.133,-0.026 0.132,-0.039C0.131,-0.051 0.13,-0.068 0.13,-0.091L0.13,-0.295ZM0.13,-0.595C0.13,-0.605 0.127,-0.61 0.12,-0.61L0.11,-0.61L0.11,-0.4L0.12,-0.4C0.127,-0.4 0.13,-0.405 0.13,-0.415L0.13,-0.595Z" style="fill:rgb(227,255,237);fill-rule:nonzero;"/>
            </g>
            <g transform="matrix(288,0,0,288,331.39,318.67)">
                <path d="M0.15,-0.61L0.11,-0.61L0.11,-0.404L0.145,-0.404L0.145,-0.314L0.11,-0.314L0.11,-0.09L0.155,-0.09L0.155,-0L0.01,-0L0.01,-0.7L0.15,-0.7L0.15,-0.61Z" style="fill:rgb(227,255,237);fill-rule:nonzero;"/>
            </g>
            <g transform="matrix(288,0,0,288,377.47,318.67)">
                <path d="M0.15,-0.61L0.11,-0.61L0.11,-0.404L0.145,-0.404L0.145,-0.314L0.11,-0.314L0.11,-0.09L0.155,-0.09L0.155,-0L0.01,-0L0.01,-0.7L0.15,-0.7L0.15,-0.61Z" style="fill:rgb(227,255,237);fill-rule:nonzero;"/>
            </g>
            <g transform="matrix(288,0,0,288,423.55,318.67)">
                <path d="M0.28,-0L0.155,-0L0.086,-0.54L0.084,-0.54L0.1,-0.315L0.105,-0L0.01,-0L0.01,-0.7L0.135,-0.7L0.204,-0.16L0.206,-0.16L0.19,-0.385L0.185,-0.7L0.28,-0.7L0.28,-0Z" style="fill:rgb(227,255,237);fill-rule:nonzero;"/>
            </g>
            <g transform="matrix(288,0,0,288,507.358,318.67)">
                <path d="M0.15,-0.61L0.11,-0.61L0.11,-0.394L0.145,-0.394L0.145,-0.304L0.11,-0.304L0.11,-0L0.01,-0L0.01,-0.7L0.15,-0.7L0.15,-0.61Z" style="fill:rgb(227,255,237);fill-rule:nonzero;"/>
            </g>
            <g transform="matrix(288,0,0,288,551.998,318.67)">
                <rect x="0.01" y="-0.7" width="0.1" height="0.7" style="fill:rgb(227,255,237);fill-rule:nonzero;"/>
            </g>
            <g transform="matrix(288,0,0,288,586.558,318.67)">
                <path d="M0.28,-0L0.155,-0L0.086,-0.54L0.084,-0.54L0.1,-0.315L0.105,-0L0.01,-0L0.01,-0.7L0.135,-0.7L0.204,-0.16L0.206,-0.16L0.19,-0.385L0.185,-0.7L0.28,-0.7L0.28,-0Z" style="fill:rgb(227,255,237);fill-rule:nonzero;"/>
            </g>
            <g transform="matrix(288,0,0,288,670.366,318.67)">
                <path d="M0.23,-0.369L0.23,-0L0.13,-0L0.13,-0.04L0.128,-0.041C0.123,-0.026 0.115,-0.014 0.106,-0.006C0.097,0.002 0.086,0.006 0.074,0.006C0.055,0.006 0.04,-0.003 0.028,-0.023C0.016,-0.042 0.01,-0.069 0.01,-0.104L0.01,-0.596C0.01,-0.631 0.021,-0.658 0.042,-0.677C0.063,-0.696 0.089,-0.706 0.121,-0.706C0.153,-0.706 0.179,-0.697 0.2,-0.678C0.22,-0.659 0.23,-0.631 0.23,-0.596L0.23,-0.435L0.13,-0.435L0.13,-0.601C0.13,-0.611 0.127,-0.616 0.12,-0.616C0.113,-0.616 0.11,-0.611 0.11,-0.601L0.11,-0.095C0.11,-0.085 0.113,-0.08 0.12,-0.08C0.127,-0.08 0.13,-0.085 0.13,-0.095L0.13,-0.279L0.12,-0.279L0.12,-0.369L0.23,-0.369Z" style="fill:rgb(227,255,237);fill-rule:nonzero;"/>
            </g>
            <g transform="matrix(288,0,0,288,739.486,318.67)">
                <path d="M0.15,-0.61L0.11,-0.61L0.11,-0.404L0.145,-0.404L0.145,-0.314L0.11,-0.314L0.11,-0.09L0.155,-0.09L0.155,-0L0.01,-0L0.01,-0.7L0.15,-0.7L0.15,-0.61Z" style="fill:rgb(227,255,237);fill-rule:nonzero;"/>
            </g>
            <g transform="matrix(288,0,0,288,785.566,318.67)">
                <path d="M0.13,-0.295C0.13,-0.305 0.127,-0.31 0.12,-0.31L0.11,-0.31L0.11,-0L0.01,-0L0.01,-0.7L0.121,-0.7C0.158,-0.7 0.185,-0.692 0.203,-0.677C0.221,-0.661 0.23,-0.635 0.23,-0.6L0.23,-0.458C0.23,-0.443 0.23,-0.43 0.229,-0.419C0.228,-0.408 0.227,-0.398 0.224,-0.39C0.221,-0.381 0.216,-0.374 0.211,-0.369C0.205,-0.364 0.197,-0.359 0.188,-0.356L0.188,-0.354C0.207,-0.348 0.219,-0.337 0.224,-0.321C0.228,-0.305 0.23,-0.282 0.23,-0.252L0.23,-0.092C0.23,-0.081 0.23,-0.071 0.231,-0.064C0.231,-0.056 0.231,-0.049 0.232,-0.042C0.233,-0.035 0.234,-0.029 0.236,-0.023C0.237,-0.017 0.239,-0.01 0.242,-0.002L0.242,-0L0.139,-0C0.136,-0.013 0.133,-0.026 0.132,-0.039C0.131,-0.051 0.13,-0.068 0.13,-0.091L0.13,-0.295ZM0.13,-0.595C0.13,-0.605 0.127,-0.61 0.12,-0.61L0.11,-0.61L0.11,-0.4L0.12,-0.4C0.127,-0.4 0.13,-0.405 0.13,-0.415L0.13,-0.595Z" style="fill:rgb(227,255,237);fill-rule:nonzero;"/>
            </g>
            <g transform="matrix(288,0,0,288,854.686,318.67)">
                <path d="M0.228,-0.104C0.228,-0.069 0.218,-0.042 0.197,-0.023C0.176,-0.003 0.15,0.006 0.118,0.006C0.086,0.006 0.06,-0.003 0.039,-0.023C0.018,-0.042 0.008,-0.069 0.008,-0.104L0.008,-0.246L0.108,-0.246L0.108,-0.099C0.108,-0.089 0.111,-0.084 0.118,-0.084C0.125,-0.084 0.128,-0.089 0.128,-0.099L0.128,-0.215C0.128,-0.236 0.123,-0.258 0.112,-0.279C0.1,-0.3 0.088,-0.321 0.075,-0.344C0.059,-0.37 0.044,-0.397 0.03,-0.426C0.015,-0.454 0.008,-0.484 0.008,-0.516L0.008,-0.596C0.008,-0.631 0.019,-0.658 0.04,-0.677C0.061,-0.696 0.087,-0.706 0.119,-0.706C0.151,-0.706 0.177,-0.697 0.198,-0.678C0.218,-0.659 0.228,-0.631 0.228,-0.596L0.228,-0.485L0.128,-0.485L0.128,-0.601C0.128,-0.611 0.125,-0.616 0.118,-0.616C0.111,-0.616 0.108,-0.611 0.108,-0.601L0.108,-0.516C0.108,-0.495 0.114,-0.474 0.125,-0.453C0.136,-0.432 0.148,-0.41 0.162,-0.387C0.178,-0.361 0.193,-0.334 0.207,-0.306C0.221,-0.277 0.228,-0.247 0.228,-0.215L0.228,-0.104Z" style="fill:rgb(227,255,237);fill-rule:nonzero;"/>
            </g>
        </g>
    </g>
</svg>
