<?xml version="1.0" standalone="no"?>
<!DOCTYPE svg PUBLIC "-//W3C//DTD SVG 20010904//EN"
 "http://www.w3.org/TR/2001/REC-SVG-20010904/DTD/svg10.dtd">
<svg version="1.0" xmlns="http://www.w3.org/2000/svg"
 width="180.000000pt" height="180.000000pt" viewBox="0 0 180.000000 180.000000"
 preserveAspectRatio="xMidYMid meet">
<metadata>
Created by potrace 1.14, written by Peter Selinger 2001-2017
</metadata>
<g transform="translate(0.000000,180.000000) scale(0.100000,-0.100000)"
fill="#000000" stroke="none">
<path d="M94 1785 c-41 -18 -82 -68 -89 -108 -3 -18 -5 -379 -3 -804 3 -761 3
-772 24 -799 11 -15 33 -37 48 -48 27 -21 35 -21 826 -21 791 0 799 0 826 21
15 11 37 33 48 48 21 27 21 35 21 826 0 791 0 799 -21 826 -11 15 -33 37 -48
48 -27 21 -37 21 -814 23 -650 1 -792 -1 -818 -12z"/>
</g>
</svg>
